<?xml version="1.0" encoding="UTF-8" standalone="no"?>
<!-- Created with Inkscape (http://www.inkscape.org/) -->

<svg
   xmlns:dc="http://purl.org/dc/elements/1.1/"
   xmlns:cc="http://creativecommons.org/ns#"
   xmlns:rdf="http://www.w3.org/1999/02/22-rdf-syntax-ns#"
   xmlns:svg="http://www.w3.org/2000/svg"
   xmlns="http://www.w3.org/2000/svg"
   version="1.1"
   width="100%"
   height="100%"
   viewBox="0 0 48 48"
   id="svg2">
  <metadata
     id="metadata24">
    <rdf:RDF>
      <cc:Work
         rdf:about="">
        <dc:format>image/svg+xml</dc:format>
        <dc:type
           rdf:resource="http://purl.org/dc/dcmitype/StillImage" />
        <dc:title></dc:title>
      </cc:Work>
    </rdf:RDF>
  </metadata>
  <defs
     id="defs4">
    <linearGradient
       x1="-17.243999"
       y1="31.785999"
       x2="-17.695999"
       y2="-15.536"
       id="0"
       gradientUnits="userSpaceOnUse">
      <stop
         id="stop7"
         style="stop-color:#2e3e46;stop-opacity:1"
         offset="0" />
      <stop
         id="stop9"
         style="stop-color:#47606a;stop-opacity:1"
         offset="1" />
    </linearGradient>
    <linearGradient
       x1="17.040001"
       y1="23.110001"
       x2="18.862"
       y2="-7.3940001"
       id="1"
       gradientUnits="userSpaceOnUse">
      <stop
         id="stop12"
         style="stop-color:#ff9300;stop-opacity:1"
         offset="0" />
      <stop
         id="stop14"
         style="stop-color:#ffd702;stop-opacity:1"
         offset="1" />
    </linearGradient>
  </defs>
  <g
     transform="matrix(0.99999,0,0,0.99999,6.629,15.882)"
     id="g16"
     style="enable-background:new">
    <circle
       cx="-17.375"
       cy="8.125"
       r="24"
       transform="scale(-1,1)"
       id="circle18"
       style="fill:url(#0)" />
    <path
       d="m 21.363,13.14 -1.205,4.339 c -0.014,0.052 -0.045,0.098 -0.085,0.132 l -3.704,3.086 c -0.048,0.04 -0.107,0.061 -0.168,0.061 -0.027,0 -0.051,-0.004 -0.077,-0.012 -0.085,-0.026 -0.151,-0.093 -0.176,-0.178 l -1.272,-4.381 c -0.927,0.037 -1.745,-0.175 -2.418,-0.639 l -1.686,1.388 c -0.107,0.088 -0.263,0.079 -0.358,-0.022 L 8.962,15.594 C 8.914,15.543 8.888,15.474 8.89,15.403 c 0,-0.071 0.033,-0.138 0.085,-0.185 l 1.669,-1.534 c -0.142,-0.39 -0.398,-1.36 -0.127,-2.837 L 6.228,9.278 C 6.145,9.248 6.082,9.177 6.062,9.09 6.041,9.003 6.062,8.913 6.128,8.848 L 9.449,5.351 C 9.488,5.31 9.538,5.283 9.593,5.273 l 4.375,-0.784 c 0.823,-0.954 1.781,-1.919 2.848,-2.87 6.142,-5.477 10.944,-6.294 13.259,-6.294 0.762,0 1.182,0.093 1.2,0.096 0.104,0.023 0.184,0.108 0.202,0.213 0.046,0.272 1.046,6.765 -7.387,15.215 -0.011,0.011 -1.141,1.109 -2.727,2.29 M 20.964,8.416 c 1.467,0 2.656,-1.192 2.656,-2.662 0,-1.47 -1.189,-2.662 -2.656,-2.662 -1.467,0 -2.656,1.192 -2.656,2.662 0,1.47 1.189,2.662 2.656,2.662 m -9.998,9.522 c 0.057,-0.056 0.14,-0.079 0.218,-0.059 0.078,0.019 0.141,0.077 0.166,0.153 l 0.604,1.798 c 0.029,0.086 0.009,0.181 -0.06,0.244 L 9.029,22.818 C 8.985,22.86 8.928,22.883 8.867,22.883 H 6.452 C 6.357,22.883 6.271,22.825 6.235,22.737 6.2,22.649 6.221,22.547 6.289,22.481 l 4.677,-4.542 m -3.2,-1.466 c 0.045,-0.046 0.106,-0.144 0.169,-0.144 h 0.001 c 0.066,0 0.128,0.102 0.171,0.152 l 1.039,1.275 c 0.08,0.092 0.075,0.23 -0.009,0.317 l -4.629,4.741 c -0.044,0.045 -0.104,0.07 -0.167,0.07 H 3.576 3.342 c -0.129,0 -0.234,-0.105 -0.234,-0.234 v -1.121 c 0,-0.06 0.024,-0.154 0.064,-0.197 l 4.59,-4.859 z M 3.182,17.05 6.527,13.783 c 0.078,-0.076 0.198,-0.088 0.288,-0.03 l 1.37,0.869 c 0.061,0.038 0.099,0.102 0.107,0.172 0.009,0.071 -0.017,0.141 -0.068,0.191 L 3.51,19.671 c -0.045,0.044 -0.105,0.068 -0.165,0.068 -0.03,0 -0.061,-0.006 -0.09,-0.018 C 3.169,19.685 3.112,19.6 3.112,19.505 v -2.288 c 0,-0.063 0.026,-0.124 0.07,-0.167 z"
       id="path20"
       style="fill:url(#1)" />
  </g>
</svg>
